# xmcd CD database file
#
# Track frame offsets:
#	150
#	2635
#	21567
#	37247
#	56845
#	76517
#	81140
#	100305
#	113815
#	129067
#	148562
#	170245
#
# Disc length: 2587 seconds
#
# Revision: 0
# Processed by: cddbd v1.5.1PL0 Copyright (c) Steve Scherf et al.
# Submitted via: CDex 1.51
#
DISCID=990a190c
DTITLE=KEN-RYW - Sympathy
DYEAR=2005
DGENRE=Hip-Hop
TTITLE0=NEW TYPE
TTITLE1=DIAMOND pt.? Feat.NA
TTITLE2=Candy Luv Feat.MICHI
TTITLE3=UNFINISHED MUSIC
TTITLE4=出会い Feat.CIMBA (Very Phat Soul)
TTITLE5=SKIT〜
TTITLE6=AFTER VISION Feat.SI-RUDE、NA
TTITLE7=アソビチューン Feat.NARU
TTITLE8=GAMBLER
TTITLE9=過ぎたあの日… Feat.Can'no
TTITLE10=永遠家族 Feat.SI-RUDE
TTITLE11=ROOTS
EXTD=YEAR: 2005
EXTT0=
EXTT1=
EXTT2=
EXTT3=
EXTT4=
EXTT5=
EXTT6=
EXTT7=
EXTT8=
EXTT9=
EXTT10=
EXTT11=
PLAYORDER=
